<svg id="Capa_1" data-name="Capa 1" xmlns="http://www.w3.org/2000/svg" viewBox="0 0 1094.38 729.35"><defs><style>.cls-1{fill:#cf5433;}.cls-2{fill:none;stroke:#000;stroke-miterlimit:10;}.cls-3{opacity:0.17;}</style></defs><path class="cls-1" d="M.5,719.5V55.93l19.14,0,0-1C1.31,54.33.49,48.81.5,29.76V4.5h1079V52.81l-.25.41a5,5,0,0,0,.25,5.81V494.37a5.53,5.53,0,0,0,0,6.18v219Z" transform="translate(7.01 5.9)"/><path d="M1079,5V52.67l-.18.29a5.51,5.51,0,0,0,.18,6.23v435a6.06,6.06,0,0,0,0,6.49V719H1V56.43l18.64,0,0-2C1.73,53.85,1,48.83,1,29.76V5H1079m1-1H0V29.76C0,48.7.68,54.81,19.65,55.48L0,55.43V720H1080V500.38a5.06,5.06,0,0,1,0-5.87V58.85a4.48,4.48,0,0,1-.32-5.37c.11-.18.21-.36.32-.53V4Z" transform="translate(7.01 5.9)"/><path d="M0,131.5H1078.31a1.5,1.5,0,0,0,0-3H0a1.5,1.5,0,0,0,0,3Z" transform="translate(7.01 5.9)"/><path d="M0,255.5H1079.61a1.5,1.5,0,0,0,0-3H0a1.5,1.5,0,0,0,0,3Z" transform="translate(7.01 5.9)"/><path d="M5,335.5H1078.9a1.5,1.5,0,0,0,0-3H5a1.5,1.5,0,0,0,0,3Z" transform="translate(7.01 5.9)"/><path d="M.59,416.5H1080.3a1.5,1.5,0,0,0,0-3H.59a1.5,1.5,0,0,0,0,3Z" transform="translate(7.01 5.9)"/><path d="M.19,494.5H1077.3a1.5,1.5,0,0,0,0-3H.19a1.5,1.5,0,0,0,0,3Z" transform="translate(7.01 5.9)"/><path d="M1.09,551.5H1079.38a1.5,1.5,0,0,0,0-3H1.09a1.5,1.5,0,0,0,0,3Z" transform="translate(7.01 5.9)"/><path d="M1.77,607.5h1076.5a1.5,1.5,0,0,0,0-3H1.77a1.5,1.5,0,0,0,0,3Z" transform="translate(7.01 5.9)"/><path d="M-.3,672.5H1078.83a1.5,1.5,0,0,0,0-3H-.3a1.5,1.5,0,0,0,0,3Z" transform="translate(7.01 5.9)"/><path d="M1.38,187.5H1078.83a1.5,1.5,0,0,0,0-3H1.38a1.5,1.5,0,0,0,0,3Z" transform="translate(7.01 5.9)"/><path d="M1,59.5H1076.2a1.5,1.5,0,0,0,0-3H1a1.5,1.5,0,0,0,0,3Z" transform="translate(7.01 5.9)"/><path d="M.88,52.5H1076.82a1.5,1.5,0,0,0,0-3H.88a1.5,1.5,0,0,0,0,3Z" transform="translate(7.01 5.9)"/><path d="M.92,52.5H1077.41a1.5,1.5,0,0,0,0-3H.92a1.5,1.5,0,0,0,0,3Z" transform="translate(7.01 5.9)"/><path d="M1077.39,49.5H974.73a1.5,1.5,0,0,0,0,3h14.06a1.5,1.5,0,0,0,0-3H974.73a1.5,1.5,0,0,0,0,3h102.08a1.5,1.5,0,0,0,0-3H974.73a1.5,1.5,0,0,0,0,3h14.06a1.5,1.5,0,0,0,0-3H974.73a1.5,1.5,0,0,0,0,3h102.66a1.5,1.5,0,0,0,0-3Z" transform="translate(7.01 5.9)"/><path d="M1076,54.5H.93a1.5,1.5,0,0,0,0,3H1076a1.5,1.5,0,0,0,0-3Z" transform="translate(7.01 5.9)"/><path d="M1,53.5H1077.41a1.5,1.5,0,0,0,0-3H1a1.5,1.5,0,0,0,0,3Z" transform="translate(7.01 5.9)"/><path class="cls-2" d="M1079.68,53.48c.27-.46.55-.91.82-1.36V3.5H.5v52H1079A5,5,0,0,1,1079.68,53.48Z" transform="translate(7.01 5.9)"/><path class="cls-2" d="M-.5,129.5v1.7a5.91,5.91,0,0,1,.29,1.46,4.33,4.33,0,0,1-.29,1.72v1.27c0,.09.08.18.11.28a4.89,4.89,0,0,1-.11,2.91v.66h42v-10Z" transform="translate(7.01 5.9)"/><path class="cls-2" d="M1081.22,41.16a192.85,192.85,0,0,1,0-29.73V3.5H-.5v52H1079a5,5,0,0,1,.71-2l1.54-2.57Z" transform="translate(7.01 5.9)"/><path d="M102.5,3V53a1.5,1.5,0,0,0,3,0V3a1.5,1.5,0,0,0-3,0Z" transform="translate(7.01 5.9)"/><path d="M232.5,55V1a1.5,1.5,0,0,0-3,0V55a1.5,1.5,0,0,0,3,0Z" transform="translate(7.01 5.9)"/><path d="M352.5,2V53a1.5,1.5,0,0,0,3,0V2a1.5,1.5,0,0,0-3,0Z" transform="translate(7.01 5.9)"/><path d="M476,53.5a1.5,1.5,0,0,0,0-3,1.5,1.5,0,0,0,0,3Z" transform="translate(7.01 5.9)"/><path d="M476.5,5.49V53a1.5,1.5,0,0,0,3,0V5.49a1.5,1.5,0,0,0-3,0Z" transform="translate(7.01 5.9)"/><path d="M580.5,51V3a1.5,1.5,0,0,0-3,0V51a1.5,1.5,0,0,0,3,0Z" transform="translate(7.01 5.9)"/><path d="M681.5,54V5a1.5,1.5,0,0,0-3,0V54a1.5,1.5,0,0,0,3,0Z" transform="translate(7.01 5.9)"/><path d="M762.5,55V-2a1.5,1.5,0,0,0-3,0V55a1.5,1.5,0,0,0,3,0Z" transform="translate(7.01 5.9)"/><path d="M851.5,55V1a1.5,1.5,0,0,0-3,0V55a1.5,1.5,0,0,0,3,0Z" transform="translate(7.01 5.9)"/><path d="M942.5,51V0a1.5,1.5,0,0,0-3,0V51a1.5,1.5,0,0,0,3,0Z" transform="translate(7.01 5.9)"/><path d="M1035.5,53V0a1.5,1.5,0,0,0-3,0V53a1.5,1.5,0,0,0,3,0Z" transform="translate(7.01 5.9)"/><path d="M14.5,58v75a1.5,1.5,0,0,0,3,0V58a1.5,1.5,0,0,0-3,0Z" transform="translate(7.01 5.9)"/><path d="M136.5,130V59a1.5,1.5,0,0,0-3,0v71a1.5,1.5,0,0,0,3,0Z" transform="translate(7.01 5.9)"/><path d="M244.5,58v72.72a1.5,1.5,0,0,0,3,0V124a1.5,1.5,0,0,0-3,0v6.72a1.5,1.5,0,0,0,3,0V58a1.5,1.5,0,0,0-3,0Z" transform="translate(7.01 5.9)"/><path d="M384.5,129V54a1.5,1.5,0,0,0-3,0v75a1.5,1.5,0,0,0,3,0Z" transform="translate(7.01 5.9)"/><path d="M529.5,130V57a1.5,1.5,0,0,0-3,0v73a1.5,1.5,0,0,0,3,0Z" transform="translate(7.01 5.9)"/><path d="M634.5,129V52a1.5,1.5,0,0,0-3,0v77a1.5,1.5,0,0,0,3,0Z" transform="translate(7.01 5.9)"/><path d="M784.5,131V52a1.5,1.5,0,0,0-3,0v79a1.5,1.5,0,0,0,3,0Z" transform="translate(7.01 5.9)"/><path d="M881.5,127V54a1.5,1.5,0,0,0-3,0v73a1.5,1.5,0,0,0,3,0Z" transform="translate(7.01 5.9)"/><path d="M986.5,129V56a1.5,1.5,0,0,0-3,0v73a1.5,1.5,0,0,0,3,0Z" transform="translate(7.01 5.9)"/><path class="cls-1" d="M68,145.5a1.5,1.5,0,0,0,0-3,1.5,1.5,0,0,0,0,3Z" transform="translate(7.01 5.9)"/><path class="cls-1" d="M57.41,143.51a61.44,61.44,0,0,0-25.93-5.31c-7.58.14-16.16,1.7-22.87-2.77a1.51,1.51,0,0,0-2,.54c-1.52,2.33-.27,5.41,2,6.76,3,1.77,6.58.19,9.06-1.69,2.77-2.09,5.08-4.36,8.8-4.22s7,2,10.15,3.67l.75-2.79-15.93-.24c-1.94,0-1.91,2.88,0,3a112.53,112.53,0,0,0,21.71-.79,1.53,1.53,0,0,0,1.3-2.26l-2-4.17c-.86-1.74-3.45-.22-2.6,1.51l2.06,4.18,1.29-2.26a112.53,112.53,0,0,1-21.71.79v3l15.93.24a1.51,1.51,0,0,0,.76-2.8c-5.16-2.82-11.45-5.76-17.23-2.89-2.65,1.32-4.53,3.85-7.27,5-1.19.51-2.74.81-3.82-.1a1.85,1.85,0,0,1-.6-2.43L7.1,138c6.72,4.49,15.11,3.5,22.76,3.23a58.91,58.91,0,0,1,26,4.85c1.75.78,3.28-1.81,1.52-2.59Z" transform="translate(7.01 5.9)"/><path class="cls-1" d="M17.72,133.79l-.22-.13.3.23a1.75,1.75,0,0,1-.23-.24l.23.31a1.51,1.51,0,0,1-.2-.35l.15.36a1.66,1.66,0,0,1-.12-.45l.05.4a2.44,2.44,0,0,1,0-.54l-.05.4a1.83,1.83,0,0,1,.12-.46l-.15.36a1.75,1.75,0,0,1,.2-.35l-.24.31a1.28,1.28,0,0,1,.26-.26l-.3.23a1.75,1.75,0,0,1,.27-.16l-.36.15h0a1.06,1.06,0,0,0,.51-.27,1,1,0,0,0,.38-.42,1.49,1.49,0,0,0-.53-2.05,1.48,1.48,0,0,0-1.16-.15,3.27,3.27,0,0,0-1,.61,2.87,2.87,0,0,0-.51.64,3.41,3.41,0,0,0-.46,1.62,3.36,3.36,0,0,0,.39,1.64,2.71,2.71,0,0,0,1.15,1.17,1.61,1.61,0,0,0,1.16.15,1.52,1.52,0,0,0,1.05-1.84,1.53,1.53,0,0,0-.69-.9Z" transform="translate(7.01 5.9)"/><path class="cls-1" d="M15,135.5a1.5,1.5,0,0,0,0-3,1.5,1.5,0,0,0,0,3Z" transform="translate(7.01 5.9)"/><path class="cls-1" d="M12.12,137.45a11.84,11.84,0,0,1-8.82.39,1.52,1.52,0,0,0-1.85,1,1.55,1.55,0,0,0,1.05,1.85A14.93,14.93,0,0,0,13.64,140a1.52,1.52,0,0,0,.54-2,1.55,1.55,0,0,0-2.06-.54Z" transform="translate(7.01 5.9)"/><path class="cls-1" d="M43,133.5a1.5,1.5,0,0,0,0-3,1.5,1.5,0,0,0,0,3Z" transform="translate(7.01 5.9)"/><path d="M110.5,130v56a1.5,1.5,0,0,0,3,0V130a1.5,1.5,0,0,0-3,0Z" transform="translate(7.01 5.9)"/><path d="M233.5,186V133a1.5,1.5,0,0,0-3,0v53a1.5,1.5,0,0,0,3,0Z" transform="translate(7.01 5.9)"/><path d="M322.5,130v56a1.5,1.5,0,0,0,3,0V130a1.5,1.5,0,0,0-3,0Z" transform="translate(7.01 5.9)"/><path d="M424.5,186V132a1.5,1.5,0,0,0-3,0v54a1.5,1.5,0,0,0,3,0Z" transform="translate(7.01 5.9)"/><path d="M516.5,131v53a1.5,1.5,0,0,0,3,0V131a1.5,1.5,0,0,0-3,0Z" transform="translate(7.01 5.9)"/><path d="M616.5,130v55a1.5,1.5,0,0,0,3,0V130a1.5,1.5,0,0,0-3,0Z" transform="translate(7.01 5.9)"/><path d="M700.5,130v54a1.5,1.5,0,0,0,3,0V130a1.5,1.5,0,0,0-3,0Z" transform="translate(7.01 5.9)"/><path d="M784,130.5a1.5,1.5,0,0,0,0-3,1.5,1.5,0,0,0,0,3Z" transform="translate(7.01 5.9)"/><path d="M785.5,187V131a1.5,1.5,0,0,0-3,0v56a1.5,1.5,0,0,0,3,0Z" transform="translate(7.01 5.9)"/><path d="M852.5,131v57a1.5,1.5,0,0,0,3,0V131a1.5,1.5,0,0,0-3,0Z" transform="translate(7.01 5.9)"/><path d="M949.5,184V132a1.5,1.5,0,0,0-3,0v52a1.5,1.5,0,0,0,3,0Z" transform="translate(7.01 5.9)"/><path d="M1020.5,132v53a1.5,1.5,0,0,0,3,0V132a1.5,1.5,0,0,0-3,0Z" transform="translate(7.01 5.9)"/><path d="M68.5,186v66a1.5,1.5,0,0,0,3,0V186a1.5,1.5,0,0,0-3,0Z" transform="translate(7.01 5.9)"/><path d="M217.5,186v67a1.5,1.5,0,0,0,3,0V186a1.5,1.5,0,0,0-3,0Z" transform="translate(7.01 5.9)"/><path d="M393,184.5h-9a1.5,1.5,0,0,0,0,3h9a1.5,1.5,0,0,0,0-3Z" transform="translate(7.01 5.9)"/><path d="M386.5,186v67a1.5,1.5,0,0,0,3,0V186a1.5,1.5,0,0,0-3,0Z" transform="translate(7.01 5.9)"/><path d="M568.5,185v67a1.5,1.5,0,0,0,3,0V185a1.5,1.5,0,0,0-3,0Z" transform="translate(7.01 5.9)"/><path d="M725.5,185v68a1.5,1.5,0,0,0,3,0V185a1.5,1.5,0,0,0-3,0Z" transform="translate(7.01 5.9)"/><path d="M884.5,186v68a1.5,1.5,0,0,0,3,0V186a1.5,1.5,0,0,0-3,0Z" transform="translate(7.01 5.9)"/><path d="M1008.5,184v70a1.5,1.5,0,0,0,3,0V184a1.5,1.5,0,0,0-3,0Z" transform="translate(7.01 5.9)"/><path d="M37.5,254v78a1.5,1.5,0,0,0,3,0V254a1.5,1.5,0,0,0-3,0Z" transform="translate(7.01 5.9)"/><path d="M186.5,332V257a1.5,1.5,0,0,0-3,0v75a1.5,1.5,0,0,0,3,0Z" transform="translate(7.01 5.9)"/><path d="M323.5,255v76a1.5,1.5,0,0,0,3,0V255a1.5,1.5,0,0,0-3,0Z" transform="translate(7.01 5.9)"/><path d="M447.5,334V256a1.5,1.5,0,0,0-3,0v78a1.5,1.5,0,0,0,3,0Z" transform="translate(7.01 5.9)"/><path d="M610.5,253v80a1.5,1.5,0,0,0,3,0V253a1.5,1.5,0,0,0-3,0Z" transform="translate(7.01 5.9)"/><path d="M764.5,334V254a1.5,1.5,0,0,0-3,0v80a1.5,1.5,0,0,0,3,0Z" transform="translate(7.01 5.9)"/><path d="M915.5,334V255a1.5,1.5,0,0,0-3,0v79a1.5,1.5,0,0,0,3,0Z" transform="translate(7.01 5.9)"/><path d="M1036.5,254v80.52a1.5,1.5,0,0,0,3,0V332a1.5,1.5,0,0,0-3,0v2.52a1.5,1.5,0,0,0,3,0V254a1.5,1.5,0,0,0-3,0Z" transform="translate(7.01 5.9)"/><path d="M86.5,334v79a1.5,1.5,0,0,0,3,0V334a1.5,1.5,0,0,0-3,0Z" transform="translate(7.01 5.9)"/><path d="M243.5,334v79a1.5,1.5,0,0,0,3,0V334a1.5,1.5,0,0,0-3,0Z" transform="translate(7.01 5.9)"/><path d="M385.5,334v78a1.5,1.5,0,0,0,3,0V334a1.5,1.5,0,0,0-3,0Z" transform="translate(7.01 5.9)"/><path d="M570.5,335v80a1.5,1.5,0,0,0,3,0V335a1.5,1.5,0,0,0-3,0Z" transform="translate(7.01 5.9)"/><path d="M732.5,333v82a1.5,1.5,0,0,0,3,0V333a1.5,1.5,0,0,0-3,0Z" transform="translate(7.01 5.9)"/><path d="M890.5,333v83a1.5,1.5,0,0,0,3,0V333a1.5,1.5,0,0,0-3,0Z" transform="translate(7.01 5.9)"/><path d="M1014.5,335v77a1.5,1.5,0,0,0,3,0V335a1.5,1.5,0,0,0-3,0Z" transform="translate(7.01 5.9)"/><path d="M119.5,416v75a1.5,1.5,0,0,0,3,0V416a1.5,1.5,0,0,0-3,0Z" transform="translate(7.01 5.9)"/><path d="M315.5,415v76a1.5,1.5,0,0,0,3,0V415a1.5,1.5,0,0,0-3,0Z" transform="translate(7.01 5.9)"/><path d="M518.5,416v77a1.5,1.5,0,0,0,3,0V416a1.5,1.5,0,0,0-3,0Z" transform="translate(7.01 5.9)"/><path d="M700.5,417v74a1.5,1.5,0,0,0,3,0V417a1.5,1.5,0,0,0-3,0Z" transform="translate(7.01 5.9)"/><path d="M859.5,416v76a1.5,1.5,0,0,0,3,0V416a1.5,1.5,0,0,0-3,0Z" transform="translate(7.01 5.9)"/><path d="M1026.5,415v78a1.5,1.5,0,0,0,3,0V415a1.5,1.5,0,0,0-3,0Z" transform="translate(7.01 5.9)"/><path d="M142,494.5h3.7a1.5,1.5,0,1,0,0-3H140a1.5,1.5,0,0,0,0,3h5.7a1.5,1.5,0,1,0,0-3H142a1.5,1.5,0,0,0,0,3Z" transform="translate(7.01 5.9)"/><path d="M145.5,549V494a1.5,1.5,0,0,0-3,0v55a1.5,1.5,0,0,0,3,0Z" transform="translate(7.01 5.9)"/><path d="M19.5,494v57a1.5,1.5,0,0,0,3,0V494a1.5,1.5,0,0,0-3,0Z" transform="translate(7.01 5.9)"/><path d="M284.5,550V492a1.5,1.5,0,0,0-3,0v58a1.5,1.5,0,0,0,3,0Z" transform="translate(7.01 5.9)"/><path d="M419.5,494v56a1.5,1.5,0,0,0,3,0V494a1.5,1.5,0,0,0-3,0Z" transform="translate(7.01 5.9)"/><path d="M549.5,550V496a1.5,1.5,0,0,0-3,0v54a1.5,1.5,0,0,0,3,0Z" transform="translate(7.01 5.9)"/><path d="M665.5,492v55a1.5,1.5,0,0,0,3,0V492a1.5,1.5,0,0,0-3,0Z" transform="translate(7.01 5.9)"/><path d="M773.5,548V496a1.5,1.5,0,0,0-3,0v52a1.5,1.5,0,0,0,3,0Z" transform="translate(7.01 5.9)"/><path d="M850.5,491v57a1.5,1.5,0,0,0,3,0V491a1.5,1.5,0,0,0-3,0Z" transform="translate(7.01 5.9)"/><path d="M951.5,548V496a1.5,1.5,0,0,0-3,0v52a1.5,1.5,0,0,0,3,0Z" transform="translate(7.01 5.9)"/><path d="M1036.5,493v56a1.5,1.5,0,0,0,3,0V493a1.5,1.5,0,0,0-3,0Z" transform="translate(7.01 5.9)"/><path d="M100.5,549v59a1.5,1.5,0,0,0,3,0V549a1.5,1.5,0,0,0-3,0Z" transform="translate(7.01 5.9)"/><path d="M70.5,607v61a1.5,1.5,0,0,0,3,0V607a1.5,1.5,0,0,0-3,0Z" transform="translate(7.01 5.9)"/><path d="M131.5,671v47a1.5,1.5,0,0,0,3,0V671a1.5,1.5,0,0,0-3,0Z" transform="translate(7.01 5.9)"/><path d="M214.5,549v60a1.5,1.5,0,0,0,3,0V549a1.5,1.5,0,0,0-3,0Z" transform="translate(7.01 5.9)"/><path d="M193.5,608v61a1.5,1.5,0,0,0,3,0V608a1.5,1.5,0,0,0-3,0Z" transform="translate(7.01 5.9)"/><path d="M268.5,671v48a1.5,1.5,0,0,0,3,0V671a1.5,1.5,0,0,0-3,0Z" transform="translate(7.01 5.9)"/><path d="M328.5,668V608a1.5,1.5,0,0,0-3,0v60a1.5,1.5,0,0,0,3,0Z" transform="translate(7.01 5.9)"/><path d="M359,606.5h3a1.56,1.56,0,0,0,1.06-.44,1.52,1.52,0,0,0,.44-1.06,1.5,1.5,0,0,0-.44-1.06,1.54,1.54,0,0,0-1.06-.44h-3a1.56,1.56,0,0,0-1.06.44,1.52,1.52,0,0,0-.44,1.06,1.5,1.5,0,0,0,.44,1.06,1.54,1.54,0,0,0,1.06.44Z" transform="translate(7.01 5.9)"/><path d="M360.5,548v56a1.5,1.5,0,0,0,3,0V548a1.5,1.5,0,0,0-3,0Z" transform="translate(7.01 5.9)"/><path d="M395.5,718V669a1.5,1.5,0,0,0-3,0v49a1.5,1.5,0,0,0,3,0Z" transform="translate(7.01 5.9)"/><path d="M464.5,672V608a1.5,1.5,0,0,0-3,0v64a1.5,1.5,0,0,0,3,0Z" transform="translate(7.01 5.9)"/><path d="M495.5,602V549a1.5,1.5,0,0,0-3,0v53a1.5,1.5,0,0,0,3,0Z" transform="translate(7.01 5.9)"/><path d="M510.5,670v50a1.5,1.5,0,0,0,3,0V670a1.5,1.5,0,0,0-3,0Z" transform="translate(7.01 5.9)"/><path d="M580.5,607v61a1.5,1.5,0,0,0,3,0V607a1.5,1.5,0,0,0-3,0Z" transform="translate(7.01 5.9)"/><path d="M612.5,551v53a1.5,1.5,0,0,0,3,0V551a1.5,1.5,0,0,0-3,0Z" transform="translate(7.01 5.9)"/><path d="M631.5,670v50a1.5,1.5,0,0,0,3,0V670a1.5,1.5,0,0,0-3,0Z" transform="translate(7.01 5.9)"/><path d="M711.5,669V608a1.5,1.5,0,0,0-3,0v61a1.5,1.5,0,0,0,3,0Z" transform="translate(7.01 5.9)"/><path d="M738.5,605V552a1.5,1.5,0,0,0-3,0v53a1.5,1.5,0,0,0,3,0Z" transform="translate(7.01 5.9)"/><path d="M743,672.5a1.5,1.5,0,0,0,0-3,1.5,1.5,0,0,0,0,3Z" transform="translate(7.01 5.9)"/><path d="M745.5,718V670a1.5,1.5,0,0,0-3,0v48a1.5,1.5,0,0,0,3,0Z" transform="translate(7.01 5.9)"/><path d="M824.5,606v63a1.5,1.5,0,0,0,3,0V606a1.5,1.5,0,0,0-3,0Z" transform="translate(7.01 5.9)"/><path d="M871.5,605V553a1.5,1.5,0,0,0-3,0v52a1.5,1.5,0,0,0,3,0Z" transform="translate(7.01 5.9)"/><path d="M882.5,670v49a1.5,1.5,0,0,0,3,0V670a1.5,1.5,0,0,0-3,0Z" transform="translate(7.01 5.9)"/><path d="M945.5,605v64a1.5,1.5,0,0,0,3,0V605a1.5,1.5,0,0,0-3,0Z" transform="translate(7.01 5.9)"/><path d="M992.5,671v48a1.5,1.5,0,0,0,3,0V671a1.5,1.5,0,0,0-3,0Z" transform="translate(7.01 5.9)"/><path d="M1001.5,605V553a1.5,1.5,0,0,0-3,0v52a1.5,1.5,0,0,0,3,0Z" transform="translate(7.01 5.9)"/><path d="M5,131.5H1079.54a1.5,1.5,0,0,0,0-3H5a1.5,1.5,0,0,0,0,3Z" transform="translate(7.01 5.9)"/><g class="cls-3"><path d="M7.43,137.43H1073.59c11.58,0,11.6-18,0-18H7.43c-11.59,0-11.61,18,0,18Z" transform="translate(7.01 5.9)"/></g><g class="cls-3"><path d="M4,190.28H1073.59c11.58,0,11.6-18,0-18H4c-11.58,0-11.6,18,0,18Z" transform="translate(7.01 5.9)"/></g><g class="cls-3"><path d="M1.68,266.11h1076.5c11.58,0,11.6-18,0-18H1.68c-11.58,0-11.6,18,0,18Z" transform="translate(7.01 5.9)"/></g><g class="cls-3"><path d="M1.68,341.93q210.78,0,421.56.05,209.55,0,419.09,0l236.25,0c11.58,0,11.6-18,0-18q-210.52,0-421,.05-209.61,0-419.23,0l-236.63,0c-11.58,0-11.6,18,0,18Z" transform="translate(7.01 5.9)"/></g><g class="cls-3"><path d="M1.68,423.5q210.78.3,421.57.36,209.57.06,419.12-.1,118.15-.09,236.3-.25c11.58,0,11.6-18,0-18q-210.56.28-421.1.35-209.64.06-419.26-.1Q120,405.67,1.68,405.5c-11.58,0-11.6,18,0,18Z" transform="translate(7.01 5.9)"/></g><g class="cls-3"><path d="M5.13,502.78q210,.12,420.05.16,208.92,0,417.86-.05,117.81,0,235.63-.11c11.58,0,11.6-18,0-18q-210,.14-419.9.16-208.95,0-417.9-.05L5.13,484.78c-11.58,0-11.6,18,0,18Z" transform="translate(7.01 5.9)"/></g><g class="cls-3"><path d="M2.83,562.52h1071.9c11.59,0,11.61-18,0-18H2.83c-11.58,0-11.6,18,0,18Z" transform="translate(7.01 5.9)"/></g><g class="cls-3"><path d="M5.13,615.37q210-.23,420-.27,208.91,0,417.82.07,117.78.08,235.58.19c11.58,0,11.6-18,0-18q-209.91-.21-419.83-.26-208.93,0-417.88.08-117.86.06-235.73.19c-11.58,0-11.6,18,0,18Z" transform="translate(7.01 5.9)"/></g><g class="cls-3"><path d="M2.83,679.7q210.55.18,421.11.22,209.25,0,418.51-.06l236.13-.15c11.58,0,11.6-18,0-18q-210.34.16-420.69.21-209.31,0-418.63-.06Q121,661.8,2.83,661.7c-11.58,0-11.6,18,0,18Z" transform="translate(7.01 5.9)"/></g><g class="cls-3"><path d="M5.13,59.31q209.87-.18,419.73-.22,208.77,0,417.52.06,117.87.06,235.75.16c11.58,0,11.6-18,0-18q-210-.18-419.92-.22-208.74,0-417.46.06-117.81.06-235.62.16c-11.58,0-11.6,18,0,18Z" transform="translate(7.01 5.9)"/></g><g class="cls-3"><path d="M12.12,54.9V125a4.5,4.5,0,1,0,9,0V54.9a4.5,4.5,0,1,0-9,0Z" transform="translate(7.01 5.9)"/></g><g class="cls-3"><path d="M130.45,56.05v58.6a4.5,4.5,0,0,0,9,0V56.05a4.5,4.5,0,0,0-9,0Z" transform="translate(7.01 5.9)"/></g><g class="cls-3"><path d="M243,58.35v64.34a4.5,4.5,0,1,0,9,0V58.35a4.5,4.5,0,1,0-9,0Z" transform="translate(7.01 5.9)"/></g><g class="cls-3"><path d="M388.76,115.79V58.35a4.5,4.5,0,0,0-9,0v57.44a4.5,4.5,0,1,0,9,0Z" transform="translate(7.01 5.9)"/></g><g class="cls-3"><path d="M532.37,114.65V56.05a4.5,4.5,0,1,0-9,0v58.6a4.5,4.5,0,0,0,9,0Z" transform="translate(7.01 5.9)"/></g><g class="cls-3"><path d="M639.21,113.5V56.05a4.5,4.5,0,1,0-9,0V113.5a4.5,4.5,0,0,0,9,0Z" transform="translate(7.01 5.9)"/></g><g class="cls-3"><path d="M790.87,115.79V59.5a4.5,4.5,0,0,0-9,0v56.29a4.5,4.5,0,0,0,9,0Z" transform="translate(7.01 5.9)"/></g><g class="cls-3"><path d="M885.07,118.09V53.75a4.5,4.5,0,0,0-9,0v64.34a4.5,4.5,0,1,0,9,0Z" transform="translate(7.01 5.9)"/></g><g class="cls-3"><path d="M990.77,115.79V54.9a4.5,4.5,0,0,0-9,0v60.89a4.5,4.5,0,0,0,9,0Z" transform="translate(7.01 5.9)"/></g><g class="cls-3"><path d="M1028.68,170.94v-31a4.5,4.5,0,1,0-9,0v31a4.5,4.5,0,1,0,9,0Z" transform="translate(7.01 5.9)"/></g><g class="cls-3"><path d="M955.16,169.79V139.92a4.5,4.5,0,1,0-9,0v29.87a4.54,4.54,0,0,0,4.5,4.5,4.59,4.59,0,0,0,4.5-4.5Z" transform="translate(7.01 5.9)"/></g><g class="cls-3"><path d="M861,168.64V141.07a4.5,4.5,0,1,0-9,0v27.57a4.5,4.5,0,1,0,9,0Z" transform="translate(7.01 5.9)"/></g><g class="cls-3"><path d="M789.72,167.49V139.92a4.5,4.5,0,1,0-9,0v27.57a4.5,4.5,0,0,0,9,0Z" transform="translate(7.01 5.9)"/></g><g class="cls-3"><path d="M705.85,169.79v-31a4.5,4.5,0,1,0-9,0v31a4.5,4.5,0,0,0,9,0Z" transform="translate(7.01 5.9)"/></g><g class="cls-3"><path d="M623.13,167.49V143.37a4.5,4.5,0,0,0-9,0v24.12a4.5,4.5,0,0,0,9,0Z" transform="translate(7.01 5.9)"/></g><g class="cls-3"><path d="M520.88,168.64V143.37a4.5,4.5,0,0,0-9,0v25.27a4.5,4.5,0,0,0,9,0Z" transform="translate(7.01 5.9)"/></g><g class="cls-3"><path d="M427.82,167.49V139.92a4.5,4.5,0,0,0-9,0v27.57a4.5,4.5,0,0,0,9,0Z" transform="translate(7.01 5.9)"/></g><g class="cls-3"><path d="M330.16,169.79v-31a4.5,4.5,0,0,0-9,0v31a4.5,4.5,0,1,0,9,0Z" transform="translate(7.01 5.9)"/></g><g class="cls-3"><path d="M233.66,168.64V141.07a4.5,4.5,0,0,0-9,0v27.57a4.5,4.5,0,0,0,9,0Z" transform="translate(7.01 5.9)"/></g><g class="cls-3"><path d="M117.62,169.79V139.92a4.5,4.5,0,0,0-9,0v29.87a4.5,4.5,0,0,0,9,0Z" transform="translate(7.01 5.9)"/></g><g class="cls-3"><path d="M75.11,244.47v-51.7a4.5,4.5,0,0,0-9,0v51.7a4.5,4.5,0,0,0,9,0Z" transform="translate(7.01 5.9)"/></g><g class="cls-3"><path d="M222.17,242.17V196.22a4.5,4.5,0,0,0-9,0v45.95a4.5,4.5,0,0,0,9,0Z" transform="translate(7.01 5.9)"/></g><g class="cls-3"><path d="M393.35,245.62V192.77a4.5,4.5,0,1,0-9,0v52.85a4.5,4.5,0,0,0,9,0Z" transform="translate(7.01 5.9)"/></g><g class="cls-3"><path d="M574.88,242.17V196.22a4.5,4.5,0,0,0-9,0v45.95a4.5,4.5,0,0,0,9,0Z" transform="translate(7.01 5.9)"/></g><g class="cls-3"><path d="M733.42,244.47V191.62a4.5,4.5,0,0,0-9,0v52.85a4.5,4.5,0,1,0,9,0Z" transform="translate(7.01 5.9)"/></g><g class="cls-3"><path d="M890.82,243.32V195.07a4.5,4.5,0,0,0-9,0v48.25a4.5,4.5,0,1,0,9,0Z" transform="translate(7.01 5.9)"/></g><g class="cls-3"><path d="M1016.05,241v-49.4a4.5,4.5,0,0,0-9,0V241a4.5,4.5,0,0,0,9,0Z" transform="translate(7.01 5.9)"/></g><g class="cls-3"><path d="M1044.77,320.29V269.74a4.5,4.5,0,0,0-9,0v50.55a4.5,4.5,0,0,0,9,0Z" transform="translate(7.01 5.9)"/></g><g class="cls-3"><path d="M920.69,318V272a4.5,4.5,0,1,0-9,0v46a4.5,4.5,0,0,0,9,0Z" transform="translate(7.01 5.9)"/></g><g class="cls-3"><path d="M769,319.15V270.89a4.5,4.5,0,1,0-9,0v48.26a4.5,4.5,0,1,0,9,0Z" transform="translate(7.01 5.9)"/></g><g class="cls-3"><path d="M616.24,320.29V267.45a4.5,4.5,0,0,0-9,0v52.84a4.5,4.5,0,0,0,9,0Z" transform="translate(7.01 5.9)"/></g><g class="cls-3"><path d="M452,323.74V266.3a4.5,4.5,0,0,0-9,0v57.44a4.5,4.5,0,0,0,9,0Z" transform="translate(7.01 5.9)"/></g><g class="cls-3"><path d="M331.31,318V268.6a4.5,4.5,0,0,0-9,0V318a4.5,4.5,0,0,0,9,0Z" transform="translate(7.01 5.9)"/></g><g class="cls-3"><path d="M191.15,324.89V267.45a4.5,4.5,0,0,0-9,0v57.44a4.5,4.5,0,0,0,9,0Z" transform="translate(7.01 5.9)"/></g><g class="cls-3"><path d="M46.39,320.29v-54a4.5,4.5,0,0,0-9,0v54a4.5,4.5,0,0,0,9,0Z" transform="translate(7.01 5.9)"/></g><g class="cls-3"><path d="M95.79,403V343.27a4.5,4.5,0,0,0-9,0V403a4.5,4.5,0,0,0,9,0Z" transform="translate(7.01 5.9)"/></g><g class="cls-3"><path d="M253.19,405.31V345.57a4.5,4.5,0,0,0-9,0v59.74a4.5,4.5,0,0,0,9,0Z" transform="translate(7.01 5.9)"/></g><g class="cls-3"><path d="M394.5,401.86V346.72a4.5,4.5,0,0,0-9,0v55.14a4.5,4.5,0,0,0,9,0Z" transform="translate(7.01 5.9)"/></g><g class="cls-3"><path d="M581.77,404.16V344.42a4.5,4.5,0,0,0-9,0v59.74a4.5,4.5,0,1,0,9,0Z" transform="translate(7.01 5.9)"/></g><g class="cls-3"><path d="M742.61,404.16V347.87a4.5,4.5,0,0,0-9,0v56.29a4.5,4.5,0,0,0,9,0Z" transform="translate(7.01 5.9)"/></g><g class="cls-3"><path d="M902.31,403V341a4.5,4.5,0,0,0-9,0v62a4.5,4.5,0,0,0,9,0Z" transform="translate(7.01 5.9)"/></g><g class="cls-3"><path d="M1019.68,347.87v57.44a4.5,4.5,0,1,0,9,0V347.87a4.5,4.5,0,1,0-9,0Z" transform="translate(7.01 5.9)"/></g><g class="cls-3"><path d="M1036.73,483.44v-56.3a4.5,4.5,0,1,0-9,0v56.3a4.5,4.5,0,1,0,9,0Z" transform="translate(7.01 5.9)"/></g><g class="cls-3"><path d="M872.44,481.14v-54a4.5,4.5,0,1,0-9,0v54a4.5,4.5,0,0,0,9,0Z" transform="translate(7.01 5.9)"/></g><g class="cls-3"><path d="M713.89,482.29V422.54a4.5,4.5,0,0,0-9,0v59.75a4.5,4.5,0,1,0,9,0Z" transform="translate(7.01 5.9)"/></g><g class="cls-3"><path d="M1018.34,399.57v-54a4.5,4.5,0,0,0-9,0v54a4.5,4.5,0,1,0,9,0Z" transform="translate(7.01 5.9)"/></g><g class="cls-3"><path d="M528.92,481.14V428.29a4.5,4.5,0,0,0-9,0v52.85a4.5,4.5,0,0,0,9,0Z" transform="translate(7.01 5.9)"/></g><g class="cls-3"><path d="M325.57,483.44V426a4.5,4.5,0,0,0-9,0v57.45a4.5,4.5,0,0,0,9,0Z" transform="translate(7.01 5.9)"/></g><g class="cls-3"><path d="M129.11,481.14v-54a4.5,4.5,0,0,0-9,0v54a4.5,4.5,0,0,0,9,0Z" transform="translate(7.01 5.9)"/></g><g class="cls-3"><path d="M30.31,542V505.26a4.5,4.5,0,0,0-9,0V542a4.5,4.5,0,0,0,9,0Z" transform="translate(7.01 5.9)"/></g><g class="cls-3"><path d="M152.09,542V503a4.5,4.5,0,0,0-9,0V542a4.5,4.5,0,0,0,9,0Z" transform="translate(7.01 5.9)"/></g><g class="cls-3"><path d="M291.1,544.33V505.26a4.5,4.5,0,0,0-9,0v39.07a4.5,4.5,0,0,0,9,0Z" transform="translate(7.01 5.9)"/></g><g class="cls-3"><path d="M427.82,539.73V505.26a4.5,4.5,0,0,0-9,0v34.47a4.5,4.5,0,0,0,9,0Z" transform="translate(7.01 5.9)"/></g><g class="cls-3"><path d="M553.05,543.18V503a4.5,4.5,0,0,0-9,0v40.21a4.5,4.5,0,1,0,9,0Z" transform="translate(7.01 5.9)"/></g><g class="cls-3"><path d="M671.38,540.88V504.12a4.5,4.5,0,0,0-9,0v36.76a4.5,4.5,0,0,0,9,0Z" transform="translate(7.01 5.9)"/></g><g class="cls-3"><path d="M778.23,542V505.26a4.5,4.5,0,0,0-9,0V542a4.5,4.5,0,0,0,9,0Z" transform="translate(7.01 5.9)"/></g><g class="cls-3"><path d="M858.65,540.88V504.12a4.5,4.5,0,0,0-9,0v36.76a4.5,4.5,0,0,0,9,0Z" transform="translate(7.01 5.9)"/></g><g class="cls-3"><path d="M958.6,537.43V504.12a4.5,4.5,0,0,0-9,0v33.31a4.5,4.5,0,0,0,9,0Z" transform="translate(7.01 5.9)"/></g><g class="cls-3"><path d="M1043.76,540.87a124.62,124.62,0,0,1-.26-16.51q.21-4,.68-8l.15-1.2c0-.18.1-.74,0-.25.09-.64.18-1.28.28-1.92.23-1.44.48-2.88.75-4.31.45-2.3-.64-5-3.14-5.54-2.22-.5-5.06.68-5.53,3.15a128.09,128.09,0,0,0-2,34.57c.19,2.34,1.93,4.61,4.5,4.5,2.27-.1,4.7-2,4.5-4.5Z" transform="translate(7.01 5.9)"/></g><g class="cls-3"><path d="M1004.65,601.67a4.5,4.5,0,1,0-4.5-4.5,4.55,4.55,0,0,0,4.5,4.5Z" transform="translate(7.01 5.9)"/></g><g class="cls-3"><path d="M1000.15,563.86V596a4.5,4.5,0,0,0,9,0V563.86a4.5,4.5,0,0,0-9,0Z" transform="translate(7.01 5.9)"/></g><g class="cls-3"><path d="M879.33,592.58V563.86a4.5,4.5,0,0,0-9,0v28.72a4.5,4.5,0,0,0,9,0Z" transform="translate(7.01 5.9)"/></g><g class="cls-3"><path d="M746.06,594.88V565a4.5,4.5,0,0,0-9,0v29.87a4.5,4.5,0,1,0,9,0Z" transform="translate(7.01 5.9)"/></g><g class="cls-3"><path d="M618.53,599.47V567.3a4.5,4.5,0,0,0-9,0v32.17a4.5,4.5,0,0,0,9,0Z" transform="translate(7.01 5.9)"/></g><g class="cls-3"><path d="M502.5,592.58V563.86a4.5,4.5,0,0,0-9,0v28.72a4.5,4.5,0,0,0,9,0Z" transform="translate(7.01 5.9)"/></g><g class="cls-3"><path d="M370.38,591.43V566.15a4.5,4.5,0,0,0-9,0v25.28a4.5,4.5,0,0,0,9,0Z" transform="translate(7.01 5.9)"/></g><g class="cls-3"><path d="M224.47,596V562.71a4.5,4.5,0,0,0-9,0V596a4.5,4.5,0,0,0,9,0Z" transform="translate(7.01 5.9)"/></g><g class="cls-3"><path d="M111.88,598.32V565a4.5,4.5,0,0,0-9,0v33.31a4.5,4.5,0,0,0,9,0Z" transform="translate(7.01 5.9)"/></g><g class="cls-3"><path d="M78.56,656.92V616.71a4.5,4.5,0,0,0-9,0v40.21a4.5,4.5,0,0,0,9,0Z" transform="translate(7.01 5.9)"/></g><g class="cls-3"><path d="M204.94,660.36V619a4.5,4.5,0,0,0-9,0v41.36a4.5,4.5,0,0,0,9,0Z" transform="translate(7.01 5.9)"/></g><g class="cls-3"><path d="M337.06,661.51v-46a4.5,4.5,0,0,0-9,0v46a4.5,4.5,0,0,0,9,0Z" transform="translate(7.01 5.9)"/></g><g class="cls-3"><path d="M472.63,658.06V617.85a4.5,4.5,0,0,0-9,0v40.21a4.5,4.5,0,0,0,9,0Z" transform="translate(7.01 5.9)"/></g><g class="cls-3"><path d="M589.81,659.21V619a4.5,4.5,0,0,0-9,0v40.21a4.5,4.5,0,0,0,9,0Z" transform="translate(7.01 5.9)"/></g><g class="cls-3"><path d="M718.49,660.36V617.85a4.5,4.5,0,0,0-9,0v42.51a4.5,4.5,0,0,0,9,0Z" transform="translate(7.01 5.9)"/></g><g class="cls-3"><path d="M833.37,662.66V617.85a4.5,4.5,0,0,0-9,0v44.81a4.5,4.5,0,0,0,9,0Z" transform="translate(7.01 5.9)"/></g><g class="cls-3"><path d="M957.45,658.06V614.41a4.5,4.5,0,0,0-9,0v43.65a4.5,4.5,0,0,0,9,0Z" transform="translate(7.01 5.9)"/></g><g class="cls-3"><path d="M1002.26,715.51V679.89a4.5,4.5,0,0,0-9,0v35.62a4.5,4.5,0,0,0,9,0Z" transform="translate(7.01 5.9)"/></g><g class="cls-3"><path d="M893.12,713.21V684.49a4.5,4.5,0,0,0-9,0v28.72a4.5,4.5,0,0,0,9,0Z" transform="translate(7.01 5.9)"/></g><g class="cls-3"><path d="M753,715.51V685.64a4.5,4.5,0,0,0-9,0v29.87a4.5,4.5,0,0,0,9,0Z" transform="translate(7.01 5.9)"/></g><g class="cls-3"><path d="M640.36,713.21V679.89a4.5,4.5,0,0,0-9,0v33.32a4.5,4.5,0,0,0,9,0Z" transform="translate(7.01 5.9)"/></g><g class="cls-3"><path d="M518.58,719V685.64a4.5,4.5,0,1,0-9,0V719a4.5,4.5,0,1,0,9,0Z" transform="translate(7.01 5.9)"/></g><g class="cls-3"><path d="M399.1,715.51V683.34a4.5,4.5,0,0,0-9,0v32.17a4.5,4.5,0,0,0,9,0Z" transform="translate(7.01 5.9)"/></g><g class="cls-3"><path d="M279.61,714.36V681a4.5,4.5,0,0,0-9,0v33.32a4.5,4.5,0,0,0,9,0Z" transform="translate(7.01 5.9)"/></g><g class="cls-3"><path d="M141.75,714.36V681a4.5,4.5,0,0,0-9,0v33.32a4.5,4.5,0,0,0,9,0Z" transform="translate(7.01 5.9)"/></g><g class="cls-3"><path d="M104,4.12v32.4a4.5,4.5,0,1,0,9,0V4.12a4.5,4.5,0,0,0-9,0Z" transform="translate(7.01 5.9)"/></g><g class="cls-3"><path d="M238.25,38.82V3.28a4.5,4.5,0,0,0-9,0V38.82a4.5,4.5,0,0,0,9,0Z" transform="translate(7.01 5.9)"/></g><g class="cls-3"><path d="M358.89,40V3.2a4.5,4.5,0,1,0-9,0V40a4.5,4.5,0,1,0,9,0Z" transform="translate(7.01 5.9)"/></g><g class="cls-3"><path d="M480.67,40V5.3a4.5,4.5,0,0,0-9,0V40a4.5,4.5,0,0,0,9,0Z" transform="translate(7.01 5.9)"/></g><g class="cls-3"><path d="M585.22,42.27V3a4.5,4.5,0,0,0-9,0v39.3a4.5,4.5,0,0,0,9,0Z" transform="translate(7.01 5.9)"/></g><g class="cls-3"><path d="M685.17,37.67V.77a4.55,4.55,0,0,0-4.5-4.5,4.57,4.57,0,0,0-4.5,4.5v36.9a4.5,4.5,0,0,0,9,0Z" transform="translate(7.01 5.9)"/></g><g class="cls-3"><path d="M766.74,37.67V-1.39a4.55,4.55,0,0,0-4.5-4.5,4.58,4.58,0,0,0-4.5,4.5V37.67a4.5,4.5,0,0,0,9,0Z" transform="translate(7.01 5.9)"/></g><g class="cls-3"><path d="M852.9,40V.68a4.54,4.54,0,0,0-4.5-4.5,4.58,4.58,0,0,0-4.5,4.5V40a4.5,4.5,0,1,0,9,0Z" transform="translate(7.01 5.9)"/></g><g class="cls-3"><path d="M948.26,42.27V.52a4.55,4.55,0,0,0-4.5-4.5,4.58,4.58,0,0,0-4.5,4.5V42.27a4.5,4.5,0,0,0,9,0Z" transform="translate(7.01 5.9)"/></g><g class="cls-3"><path d="M1040.17,41.12V1a4.55,4.55,0,0,0-4.5-4.5,4.57,4.57,0,0,0-4.5,4.5V41.12a4.5,4.5,0,0,0,9,0Z" transform="translate(7.01 5.9)"/></g></svg>