<svg id="Capa_2" data-name="Capa 2" xmlns="http://www.w3.org/2000/svg" viewBox="0 0 363.3 312.07"><defs><style>.cls-1{fill:#272525;}</style></defs><path class="cls-1" d="M634.42,394.34a6.72,6.72,0,0,0-7.85,5.35l-5.67,29.68a6.73,6.73,0,0,0,5.34,7.86l11.46,2.18a79.74,79.74,0,0,0,3.83,18.43l-9.66,6.57a6.72,6.72,0,0,0-1.78,9.33l17,25a6.73,6.73,0,0,0,9.34,1.78l9.66-6.56a79.36,79.36,0,0,0,15.72,10.34l-2.18,11.47a6.71,6.71,0,0,0,5.34,7.85l29.68,5.66a6.1,6.1,0,0,0,1.26.12,6.71,6.71,0,0,0,6.59-5.46l2.19-11.45a79.24,79.24,0,0,0,18.43-3.84l6.57,9.67a6.75,6.75,0,0,0,4.3,2.82,6.69,6.69,0,0,0,5-1l25-17a6.72,6.72,0,0,0,1.79-9.33l-6.57-9.66a79,79,0,0,0,10.35-15.73L801,470.57a6.72,6.72,0,0,0,7.85-5.34l5.67-29.68a6.76,6.76,0,0,0-1-5,6.69,6.69,0,0,0-4.3-2.82l-11.45-2.19a79.74,79.74,0,0,0-3.83-18.43l9.66-6.56a6.73,6.73,0,0,0,1.78-9.34l-17-25A6.72,6.72,0,0,0,779,364.4L769.37,371a79.58,79.58,0,0,0-15.73-10.34l2.19-11.46a6.72,6.72,0,0,0-5.34-7.86l-29.68-5.66A6.72,6.72,0,0,0,713,341l-2.18,11.46a79.41,79.41,0,0,0-18.44,3.83l-6.56-9.66a6.7,6.7,0,0,0-9.33-1.78l-25,17a6.75,6.75,0,0,0-1.78,9.33l6.57,9.66a79.77,79.77,0,0,0-10.35,15.73ZM656,406.7a66,66,0,0,1,13.58-20.64,6.72,6.72,0,0,0,.72-8.45l-5.75-8.46,13.88-9.43,5.75,8.46a6.74,6.74,0,0,0,8.12,2.44,66.18,66.18,0,0,1,24.19-5,6.73,6.73,0,0,0,6.49-5.46l1.91-10,16.48,3.14-1.91,10a6.71,6.71,0,0,0,4,7.46,66.13,66.13,0,0,1,20.64,13.58,6.72,6.72,0,0,0,8.45.72l8.46-5.75,9.43,13.88L782,398.92a6.72,6.72,0,0,0-2.44,8.12,66.38,66.38,0,0,1,5,24.19,6.72,6.72,0,0,0,5.46,6.49l10,1.91-3.15,16.48-10-1.91a6.69,6.69,0,0,0-7.46,4,66.25,66.25,0,0,1-13.58,20.64,6.71,6.71,0,0,0-.73,8.44l5.75,8.46L757,505.2l-5.76-8.47a6.72,6.72,0,0,0-8.11-2.44,66.27,66.27,0,0,1-24.19,5,6.71,6.71,0,0,0-6.49,5.45l-1.91,10-16.49-3.15,1.92-10a6.71,6.71,0,0,0-4-7.46,66.16,66.16,0,0,1-20.64-13.59,6.73,6.73,0,0,0-8.44-.72l-8.47,5.75L645,471.74l8.46-5.74a6.73,6.73,0,0,0,2.44-8.12,66.27,66.27,0,0,1-5-24.2,6.72,6.72,0,0,0-5.46-6.48l-10-1.91,3.14-16.49,10,1.92A6.72,6.72,0,0,0,656,406.7Z" transform="translate(-451.36 -217.32)"/><path class="cls-1" d="M708.67,479.88h0a47.61,47.61,0,0,0,9.07.87,48.46,48.46,0,1,0-9.07-.87Zm-25.18-54a34.85,34.85,0,0,1,34.16-28.32,36,36,0,0,1,6.6.62,34.85,34.85,0,0,1-13.06,68.47h0a34.84,34.84,0,0,1-27.7-40.77Z" transform="translate(-451.36 -217.32)"/><path class="cls-1" d="M455.72,342.8a6.72,6.72,0,0,0,7.61,5.7l11.55-1.66a79.17,79.17,0,0,0,9.6,16.18l-7,9.35a6.71,6.71,0,0,0,1.35,9.41L503,399.89a6.71,6.71,0,0,0,9.4-1.35l7-9.35a79.38,79.38,0,0,0,18.24,4.67l1.65,11.55a6.71,6.71,0,0,0,6.65,5.76,6.2,6.2,0,0,0,1-.07l29.9-4.29a6.71,6.71,0,0,0,5.7-7.6l-1.66-11.55A79.33,79.33,0,0,0,597.06,378l9.35,7a6.71,6.71,0,0,0,9.4-1.34l18.12-24.19a6.72,6.72,0,0,0-1.35-9.4l-9.35-7a79.43,79.43,0,0,0,4.67-18.23l11.55-1.66a6.69,6.69,0,0,0,4.42-2.62,6.77,6.77,0,0,0,1.27-5l-4.3-29.91a6.72,6.72,0,0,0-7.6-5.7l-11.55,1.66a79.28,79.28,0,0,0-9.61-16.19l7-9.35a6.72,6.72,0,0,0-1.35-9.4l-24.18-18.11a6.71,6.71,0,0,0-9.41,1.35l-7,9.35a79.66,79.66,0,0,0-18.24-4.68l-1.65-11.54a6.72,6.72,0,0,0-7.61-5.7l-29.91,4.29a6.74,6.74,0,0,0-5.7,7.61l1.67,11.55a79.28,79.28,0,0,0-16.19,9.61l-9.35-7a6.71,6.71,0,0,0-9.41,1.35L462.64,269a6.72,6.72,0,0,0,1.35,9.4l9.36,7a79.15,79.15,0,0,0-4.68,18.24l-11.55,1.66a6.73,6.73,0,0,0-5.7,7.6Zm39.95-78.44a6.72,6.72,0,0,0,8.47-.33,66.1,66.1,0,0,1,21.25-12.62,6.71,6.71,0,0,0,4.35-7.27L528.29,234l16.62-2.38,1.44,10.11a6.73,6.73,0,0,0,6.23,5.75,66,66,0,0,1,23.93,6.13,6.73,6.73,0,0,0,8.23-2.06l6.13-8.19,13.43,10.06-6.14,8.19a6.71,6.71,0,0,0,.34,8.46,66.49,66.49,0,0,1,12.62,21.25,6.73,6.73,0,0,0,7.27,4.36l10.11-1.45,2.39,16.6-10.11,1.46a6.73,6.73,0,0,0-5.76,6.22,66,66,0,0,1-6.13,23.94A6.72,6.72,0,0,0,611,350.7l8.19,6.13-10,13.43-8.19-6.13a6.71,6.71,0,0,0-8.47.34,66.28,66.28,0,0,1-21.25,12.61,6.74,6.74,0,0,0-4.36,7.27l1.46,10.12-16.62,2.38-1.45-10.11A6.71,6.71,0,0,0,544,381a66.42,66.42,0,0,1-23.94-6.13,6.64,6.64,0,0,0-2.84-.64,6.74,6.74,0,0,0-5.38,2.7l-6.13,8.18-13.43-10.05,6.13-8.2a6.71,6.71,0,0,0-.33-8.46,66.13,66.13,0,0,1-12.62-21.25,6.73,6.73,0,0,0-7.27-4.35l-10.11,1.45-2.39-16.61,10.11-1.45a6.72,6.72,0,0,0,5.75-6.23A66.47,66.47,0,0,1,487.67,286a6.71,6.71,0,0,0-2.06-8.22l-8.19-6.13,10.07-13.43Z" transform="translate(-451.36 -217.32)"/><path class="cls-1" d="M548.25,362.54a48.29,48.29,0,1,0-47.77-41.43A48.82,48.82,0,0,0,548.25,362.54Zm34.53-53.24a34.8,34.8,0,1,1-34.47-29.91A34.88,34.88,0,0,1,582.78,309.3Z" transform="translate(-451.36 -217.32)"/></svg>